<svg width="2212" height="1604" viewBox="0 0 2212 1604" fill="none" xmlns="http://www.w3.org/2000/svg">
<path fill-rule="evenodd" clip-rule="evenodd" d="M1065.66 20.3398C1085.65 -6.77999 1126.19 -6.77988 1146.17 20.3398L2202 1453.24C2226.32 1486.26 2202.75 1532.9 2161.74 1532.9H1709.1C1707.87 1532.9 1706.78 1532.18 1706.02 1531.21L1130.98 788.195C1126.97 783.023 1119.16 783.023 1115.16 788.195L540.112 1531.21C539.358 1532.18 538.264 1532.9 537.032 1532.9H50.09C9.08263 1532.9 -14.4885 1486.26 9.83707 1453.24L1065.66 20.3398Z" fill="#3BE9DD"/>
<path d="M1088.68 1038.22C1108.66 1011.12 1149.17 1011.12 1169.16 1038.22L1413.1 1368.98C1437.44 1401.99 1413.88 1448.66 1372.86 1448.66H884.973C843.956 1448.66 820.388 1401.99 844.734 1368.98L1088.68 1038.22Z" fill="#3BE9DD"/>
</svg>
